# File created by Blade
# Date/Time:  Wed Jan 21 17:16:23 2015
# Frame Rate: 120.000 fps
#------------------------------------------------------
:FULLY-SPECIFIED
:DEGREES
2316
root 21.109893 33.559851 -14.734873 -185.272119 -5.536835 -181.012716
Spine 19.967935 4.948358 -2.119268
Head -8.124638 -9.415239 6.627148
LeftShoulder 8.481644 -31.995984 1.193234
LeftArm 17.618125 22.256249 -41.207005
LeftForeArm 13.528745 -0.000000 104.608607
LeftHand -5.318865 -0.000000 6.608895
LeftHandThumb1 -26.253704 0.000000 33.147579
RightShoulder 5.814005 3.297501 -4.025320
RightArm 49.523931 -2.883104 59.356734
RightForeArm -38.754660 -0.000000 97.049242
RightHand -5.645748 -0.000000 -13.818895
RightHandThumb1 -24.326973 -0.000000 -32.862282
LeftUpLeg -20.414451 16.897329 0.878585
LeftLeg 37.508997 -0.000000 -0.000000
LeftFoot -31.210476 27.369932 -9.702156
LeftToeBase 13.184839 -0.000000 -0.000000
RightUpLeg -24.792226 -7.700817 -1.142498
RightLeg 55.395807 -0.000000 -0.000000
RightFoot -24.546377 -11.010831 1.339953
RightToeBase 10.897154 -0.000000 -0.000000
2317
root 21.127345 33.668578 -14.858504 -185.366017 -5.703277 -181.003501
Spine 19.163118 4.062141 -2.191443
Head -7.650788 -8.813569 6.451322
LeftShoulder 7.389611 -31.406249 1.463588
LeftArm 17.015100 23.155015 -41.616321
LeftForeArm 12.681418 0.000000 104.851644
LeftHand -5.105792 -0.000000 6.488606
LeftHandThumb1 -26.253704 0.000000 33.147579
RightShoulder 6.000000 3.101640 -3.644295
RightArm 49.157455 -4.354004 59.215244
RightForeArm -39.209558 -0.000000 97.864111
RightHand -5.561489 -0.000000 -14.012462
RightHandThumb1 -24.326973 -0.000000 -32.862282
LeftUpLeg -19.633787 16.796910 1.013899
LeftLeg 36.604018 -0.000000 -0.000000
LeftFoot -31.090600 27.206077 -9.865780
LeftToeBase 13.255774 -0.000000 -0.000000
RightUpLeg -23.417816 -8.102426 -1.007615
RightLeg 54.117152 -0.000000 -0.000000
RightFoot -24.205233 -9.917896 1.286633
RightToeBase 10.397564 -0.000000 -0.000000
2318
root 21.141804 33.772602 -14.986489 -185.479352 -5.865388 -180.994946
Spine 18.364798 3.520688 -2.124132
Head -7.133030 -8.649243 6.261835
LeftShoulder 6.733506 -30.787175 1.531498
LeftArm 16.349592 24.091214 -42.158419
LeftForeArm 11.943602 -0.000000 104.942850
LeftHand -5.027250 0.000000 6.510479
LeftHandThumb1 -26.253704 0.000000 33.147579
RightShoulder 5.962413 3.015181 -3.214435
RightArm 48.524968 -5.727900 59.116255
RightForeArm -39.610442 -0.000000 98.743018
RightHand -5.328098 -0.000000 -13.700671
RightHandThumb1 -24.326973 -0.000000 -32.862282
LeftUpLeg -18.848046 16.746244 1.145971
LeftLeg 35.728068 -0.000000 -0.000000
LeftFoot -30.976590 27.008653 -10.009699
LeftToeBase 13.360085 -0.000000 -0.000000
RightUpLeg -21.977493 -8.551997 -0.876174
RightLeg 52.653008 -0.000000 -0.000000
RightFoot -23.882456 -9.071121 1.248025
RightToeBase 9.527355 -0.000000 -0.000000
2319
root 21.157800 33.872123 -15.113605 -185.533854 -6.034289 -181.007448
Spine 17.501990 2.996939 -2.053233
Head -6.528434 -8.340812 6.054034
LeftShoulder 6.055713 -30.098283 1.572569
LeftArm 15.737857 25.061295 -42.718016
LeftForeArm 11.123131 0.000000 104.931476
LeftHand -5.045148 -0.000000 6.492778
LeftHandThumb1 -26.253704 0.000000 33.147579
RightShoulder 5.754742 2.587661 -2.856482
RightArm 48.170794 -7.243296 58.702415
RightForeArm -39.970674 -0.000000 99.484964
RightHand -5.419991 -0.000000 -13.933715
RightHandThumb1 -24.326973 -0.000000 -32.862282
LeftUpLeg -18.121610 16.612139 1.238863
LeftLeg 34.838288 -0.000000 -0.000000
LeftFoot -30.828570 26.855004 -10.166014
LeftToeBase 13.421257 -0.000000 -0.000000
RightUpLeg -20.539157 -9.006660 -0.762790
RightLeg 50.966773 -0.000000 -0.000000
RightFoot -23.468197 -8.709656 1.146054
RightToeBase 9.172292 -0.000000 -0.000000
2320
root 21.173425 33.959949 -15.235582 -185.552926 -6.196933 -181.042175
Spine 16.618651 2.509407 -1.990465
Head -5.981808 -8.071099 5.830925
LeftShoulder 5.396106 -29.434580 1.646257
LeftArm 15.081902 26.048377 -43.395861
LeftForeArm 10.472598 -0.000000 104.753457
LeftHand -4.971354 -0.000000 6.612805
LeftHandThumb1 -26.253704 0.000000 33.147579
RightShoulder 5.538717 2.213343 -2.512538
RightArm 47.741839 -8.761505 58.306382
RightForeArm -40.444818 -0.000000 100.204257
RightHand -5.479664 -0.000000 -14.077437
RightHandThumb1 -24.326973 -0.000000 -32.862282
LeftUpLeg -17.483252 16.512597 1.296761
LeftLeg 34.040085 -0.000000 -0.000000
LeftFoot -30.683449 26.684807 -10.247588
LeftToeBase 13.274908 -0.000000 -0.000000
RightUpLeg -19.143254 -9.393029 -0.679390
RightLeg 49.127621 -0.000000 -0.000000
RightFoot -23.370634 -8.938861 0.497680
RightToeBase 8.357833 -0.000000 -0.000000
2321
root 21.193708 34.041274 -15.359348 -185.573548 -6.380942 -181.110611
Spine 15.746659 2.036831 -1.970537
Head -5.436188 -7.904335 5.635980
LeftShoulder 4.775496 -28.772702 1.707330
LeftArm 14.368242 27.060536 -44.122989
LeftForeArm 9.790759 -0.000000 104.510996
LeftHand -4.988812 -0.000000 6.802245
LeftHandThumb1 -26.253704 0.000000 33.147579
RightShoulder 5.368195 1.838550 -2.100095
RightArm 47.238686 -10.192292 57.908926
RightForeArm -40.916471 -0.000000 100.931872
RightHand -5.497435 -0.000000 -13.729511
RightHandThumb1 -24.326973 -0.000000 -32.862282
LeftUpLeg -16.840346 16.352538 1.327349
LeftLeg 33.250072 -0.000000 -0.000000
LeftFoot -30.482306 26.546193 -10.252748
LeftToeBase 13.040481 -0.000000 -0.000000
RightUpLeg -17.719436 -9.763076 -0.642716
RightLeg 47.116553 -0.000000 -0.000000
RightFoot -23.840980 -9.654881 -0.149478
RightToeBase 7.383672 -0.000000 -0.000000
2322
root 21.218321 34.117278 -15.477831 -185.551971 -6.477688 -181.182731
Spine 14.850915 1.632886 -1.937892
Head -4.882010 -7.553788 5.402275
LeftShoulder 4.111220 -28.088778 1.748162
LeftArm 13.670712 28.082808 -44.849890
LeftForeArm 9.465511 -0.000000 104.182516
LeftHand -5.068390 -0.000000 6.965027
LeftHandThumb1 -26.253704 0.000000 33.147579
RightShoulder 5.253162 1.392284 -1.645437
RightArm 46.745738 -11.544264 57.498018
RightForeArm -41.407939 -0.000000 101.635517
RightHand -5.306936 -0.000000 -13.314863
RightHandThumb1 -24.326973 -0.000000 -32.862282
LeftUpLeg -16.269864 16.267630 1.360206
LeftLeg 32.541179 -0.000000 -0.000000
LeftFoot -30.385039 26.352641 -10.390984
LeftToeBase 12.926031 -0.000000 -0.000000
RightUpLeg -16.356345 -10.045843 -0.589616
RightLeg 44.907492 -0.000000 -0.000000
RightFoot -24.584763 -10.560666 -0.225199
RightToeBase 9.207382 -0.000000 -0.000000
2323
root 21.240454 34.187839 -15.593391 -185.513368 -6.549072 -181.300212
Spine 13.959871 1.198961 -1.935951
Head -4.322268 -7.174359 5.137590
LeftShoulder 3.374594 -27.430823 1.743074
LeftArm 12.962498 29.107640 -45.547199
LeftForeArm 9.062261 -0.000000 103.748480
LeftHand -5.053352 -0.000000 7.028953
LeftHandThumb1 -26.253704 0.000000 33.147579
RightShoulder 5.170100 0.795949 -1.199590
RightArm 46.382511 -12.881981 56.977246
RightForeArm -42.055112 -0.000000 102.233832
RightHand -5.095544 -0.000000 -12.946079
RightHandThumb1 -24.326973 -0.000000 -32.862282
LeftUpLeg -15.698965 16.161906 1.342898
LeftLeg 31.786296 -0.000000 -0.000000
LeftFoot -30.251788 26.261752 -10.468950
LeftToeBase 12.646064 -0.000000 -0.000000
RightUpLeg -15.046449 -10.209450 -0.586068
RightLeg 42.667551 -0.000000 -0.000000
RightFoot -25.238191 -11.325627 -0.588987
RightToeBase 11.695128 -0.000000 -0.000000
2324
root 21.267956 34.254576 -15.706105 -185.380706 -6.602903 -181.423284
Spine 12.926070 0.627573 -1.963342
Head -3.634485 -6.611189 4.793489
LeftShoulder 2.456757 -26.651058 1.738234
LeftArm 12.336630 30.119021 -46.149551
LeftForeArm 8.918153 -0.000000 103.188105
LeftHand -5.010424 0.000000 7.021874
LeftHandThumb1 -26.253704 0.000000 33.147579
RightShoulder 5.303363 0.151986 -0.712903
RightArm 45.956756 -14.177959 56.376518
RightForeArm -42.618627 -0.000000 102.753205
RightHand -4.872305 -0.000000 -12.467050
RightHandThumb1 -24.326973 -0.000000 -32.862282
LeftUpLeg -15.246631 16.093923 1.300089
LeftLeg 31.075886 -0.000000 -0.000000
LeftFoot -30.167599 26.072150 -10.580986
LeftToeBase 12.564119 -0.000000 -0.000000
RightUpLeg -13.908554 -10.276416 -0.564662
RightLeg 40.637498 -0.000000 -0.000000
RightFoot -25.994085 -11.883484 -0.828226
RightToeBase 13.189281 -0.000000 -0.000000
2325
root 21.296846 34.317096 -15.812918 -185.297664 -6.577564 -181.530573
Spine 12.026504 0.432134 -1.855978
Head -3.105317 -6.357047 4.434772
LeftShoulder 1.844267 -25.918234 1.494578
LeftArm 11.804581 31.129089 -46.671756
LeftForeArm 8.865763 -0.000000 102.566080
LeftHand -4.974701 -0.000000 7.171776
LeftHandThumb1 -26.253704 0.000000 33.147579
RightShoulder 5.160498 -0.394598 -0.245403
RightArm 45.420439 -15.468287 55.773147
RightForeArm -42.968858 -0.000000 103.313509
RightHand -4.702834 -0.000000 -11.767196
RightHandThumb1 -24.326973 -0.000000 -32.862282
LeftUpLeg -14.761989 16.034072 1.295420
LeftLeg 30.407538 -0.000000 -0.000000
LeftFoot -30.078213 25.969269 -10.729308
LeftToeBase 12.471432 -0.000000 -0.000000
RightUpLeg -12.795005 -10.170305 -0.508180
RightLeg 38.714092 -0.000000 -0.000000
RightFoot -26.623190 -12.565388 -0.990061
RightToeBase 14.630198 -0.000000 -0.000000
2326
root 21.327695 34.376973 -15.916423 -185.229551 -6.519200 -181.675854
Spine 11.167244 0.339444 -1.792883
Head -2.588834 -6.134351 4.094836
LeftShoulder 1.260143 -25.159144 1.215390
LeftArm 11.357377 32.147812 -47.116394
LeftForeArm 9.002897 -0.000000 101.825329
LeftHand -4.896582 0.000000 7.249197
LeftHandThumb1 -26.253704 0.000000 33.147579
RightShoulder 4.987063 -1.111312 0.284504
RightArm 45.003076 -16.626274 55.076150
RightForeArm -43.207754 -0.000000 103.725235
RightHand -4.292472 -0.000000 -11.184272
RightHandThumb1 -24.326973 -0.000000 -32.862282
LeftUpLeg -14.251394 15.972275 1.268107
LeftLeg 29.717750 -0.000000 -0.000000
LeftFoot -29.893319 25.905010 -10.914286
LeftToeBase 12.373829 -0.000000 -0.000000
RightUpLeg -11.788528 -10.051762 -0.489647
RightLeg 37.004775 -0.000000 -0.000000
RightFoot -27.142894 -13.202908 -1.012146
RightToeBase 15.751924 -0.000000 -0.000000
2327
root 21.357717 34.437187 -16.016660 -185.204661 -6.372781 -181.792455
Spine 10.395344 0.371732 -1.643247
Head -2.108252 -6.028791 3.712636
LeftShoulder 0.769410 -24.525084 0.791086
LeftArm 10.781803 33.101939 -47.662963
LeftForeArm 9.329701 -0.000000 101.015936
LeftHand -4.918700 -0.000000 7.064532
LeftHandThumb1 -26.253704 0.000000 33.147579
RightShoulder 4.819468 -1.754573 0.798360
RightArm 44.452629 -17.745594 54.374507
RightForeArm -43.428406 -0.000000 104.069550
RightHand -3.898320 -0.000000 -10.396152
RightHandThumb1 -24.326973 -0.000000 -32.862282
LeftUpLeg -13.708599 16.026215 1.280782
LeftLeg 29.036102 -0.000000 -0.000000
LeftFoot -29.559150 25.838035 -11.186652
LeftToeBase 12.614026 -0.000000 -0.000000
RightUpLeg -10.759998 -9.544948 -0.429005
RightLeg 35.311800 -0.000000 -0.000000
RightFoot -27.515484 -13.945553 -1.007330
RightToeBase 16.724358 -0.000000 -0.000000
2328
root 21.390403 34.492073 -16.108883 -185.209453 -6.114247 -181.921633
Spine 9.724283 0.312522 -1.505063
Head -1.700588 -5.591151 3.205752
LeftShoulder 0.050656 -23.980992 0.382474
LeftArm 10.165644 34.043934 -48.154158
LeftForeArm 9.894222 -0.000000 100.216403
LeftHand -5.103078 -0.000000 6.826498
LeftHandThumb1 -26.253704 0.000000 33.147579
RightShoulder 4.855235 -2.421996 1.252948
RightArm 43.927530 -18.809224 53.700063
RightForeArm -43.470191 0.000000 104.338948
RightHand -3.511551 0.000000 -9.380869
RightHandThumb1 -24.326973 -0.000000 -32.862282
LeftUpLeg -13.114137 16.127844 1.305236
LeftLeg 28.281357 -0.000000 -0.000000
LeftFoot -28.847932 25.945739 -11.445326
LeftToeBase 13.093765 -0.000000 -0.000000
RightUpLeg -9.825394 -8.582518 -0.367315
RightLeg 33.829379 -0.000000 -0.000000
RightFoot -27.733939 -14.731758 -0.999493
RightToeBase 17.233580 -0.000000 -0.000000
